<?xml version="1.0" encoding="UTF-8" standalone="no"?>
<!DOCTYPE svg PUBLIC "-//W3C//DTD SVG 1.1//EN" "http://www.w3.org/Graphics/SVG/1.1/DTD/svg11.dtd">
<svg width="100%" height="100%" viewBox="0 0 767 623" version="1.1" xmlns="http://www.w3.org/2000/svg" xmlns:xlink="http://www.w3.org/1999/xlink" xml:space="preserve" xmlns:serif="http://www.serif.com/" style="fill-rule:evenodd;clip-rule:evenodd;stroke-linejoin:round;stroke-miterlimit:2;">
    <g transform="matrix(1,0,0,1,-2271,-1668)">
        <g id="Calque1">
        </g>
        <g id="Calque11" serif:id="Calque1">
        </g>
        <g transform="matrix(1,0,0,1,236.22,409.186)">
            <g id="Calque12" serif:id="Calque1">
                <g>
                    <g transform="matrix(0.461538,0,0,0.461538,1581.06,952.716)">
                        <path d="M2238.56,1009.14L2238.56,1636.53C2238.56,1722.65 2168.64,1792.56 2082.53,1792.56L1481.58,1792.56C1395.46,1792.56 1325.55,1722.65 1325.55,1636.53L1325.55,1009.14C1325.55,923.021 1395.46,853.106 1481.58,853.106L2082.53,853.106C2168.64,853.106 2238.56,923.021 2238.56,1009.14ZM1526.55,1325.36C1563.68,1325.36 1593.82,1295.22 1593.82,1258.1C1593.82,1220.97 1563.68,1190.83 1526.55,1190.83C1489.43,1190.83 1459.29,1220.97 1459.29,1258.1C1459.29,1295.22 1489.43,1325.36 1526.55,1325.36ZM2037.55,1325.36C2074.68,1325.36 2104.82,1295.22 2104.82,1258.1C2104.82,1220.97 2074.68,1190.83 2037.55,1190.83C2000.42,1190.83 1970.28,1220.97 1970.28,1258.1C1970.28,1295.22 2000.42,1325.36 2037.55,1325.36ZM1867.89,1374.02C1867.89,1388.63 1859.12,1401.23 1846.85,1410.82C1830.3,1423.75 1807.28,1431.24 1782.05,1431.24C1756.82,1431.24 1733.8,1423.75 1717.25,1410.82C1704.98,1401.23 1696.21,1388.63 1696.21,1374.02C1696.21,1349.1 1675.98,1328.88 1651.07,1328.88C1626.16,1328.88 1605.93,1349.1 1605.93,1374.02C1605.93,1452.09 1682.15,1521.52 1782.05,1521.52C1881.95,1521.52 1958.17,1452.09 1958.17,1374.02C1958.17,1349.1 1937.94,1328.88 1913.03,1328.88C1888.12,1328.88 1867.89,1349.1 1867.89,1374.02Z" style="fill:white;"/>
                    </g>
                </g>
            </g>
        </g>
    </g>
</svg>
