<?xml version="1.0" encoding="UTF-8" standalone="no"?>
<!DOCTYPE svg PUBLIC "-//W3C//DTD SVG 1.1//EN" "http://www.w3.org/Graphics/SVG/1.1/DTD/svg11.dtd">
<svg width="100%" height="100%" viewBox="0 0 1247 1168" version="1.1" xmlns="http://www.w3.org/2000/svg" xmlns:xlink="http://www.w3.org/1999/xlink" xml:space="preserve" xmlns:serif="http://www.serif.com/" style="fill-rule:evenodd;clip-rule:evenodd;stroke-linejoin:round;stroke-miterlimit:2;">
    <g transform="matrix(1,0,0,1,-2017,-237)">
        <g id="Calque1">
        </g>
        <g id="Calque11" serif:id="Calque1">
        </g>
        <g transform="matrix(1,0,0,1,236.22,409.186)">
            <g id="Calque12" serif:id="Calque1">
                <g>
                    <g transform="matrix(1,0,0,1,621.492,-910.105)">
                        <path d="M2299.67,1009.14L2299.67,1636.53C2299.67,1756.38 2202.37,1853.67 2082.53,1853.67L1481.58,1853.67C1361.73,1853.67 1264.44,1756.38 1264.44,1636.53L1264.44,1009.14C1264.44,889.292 1361.73,791.995 1481.58,791.995L2082.53,791.995C2202.37,791.995 2299.67,889.292 2299.67,1009.14ZM1855.21,1208.6C1855.21,1240.59 1818.58,1261.93 1777.64,1261.93C1736.71,1261.93 1700.08,1240.59 1700.08,1208.6C1700.08,1190.2 1685.14,1175.26 1666.74,1175.26C1648.35,1175.26 1633.41,1190.2 1633.41,1208.6C1633.41,1272.36 1696.05,1328.6 1777.64,1328.6C1859.24,1328.6 1921.88,1272.36 1921.88,1208.6C1921.88,1190.2 1906.94,1175.26 1888.55,1175.26C1870.15,1175.26 1855.21,1190.2 1855.21,1208.6ZM1994.36,1045.1C1958.51,1045.1 1929.4,1074.21 1929.4,1110.06C1929.4,1145.91 1958.51,1175.02 1994.36,1175.02C2030.22,1175.02 2059.32,1145.91 2059.32,1110.06C2059.32,1074.21 2030.22,1045.1 1994.36,1045.1ZM1994.36,1111.77C1993.42,1111.77 1992.66,1111 1992.66,1110.06C1992.66,1109.12 1993.42,1108.36 1994.36,1108.36C1995.31,1108.36 1996.07,1109.12 1996.07,1110.06C1996.07,1111 1995.31,1111.77 1994.36,1111.77ZM1564.25,1045.1C1528.4,1045.1 1499.29,1074.21 1499.29,1110.06C1499.29,1145.91 1528.4,1175.02 1564.25,1175.02C1600.11,1175.02 1629.22,1145.91 1629.22,1110.06C1629.22,1074.21 1600.11,1045.1 1564.25,1045.1ZM1564.25,1111.77C1563.31,1111.77 1562.55,1111 1562.55,1110.06C1562.55,1109.12 1563.31,1108.36 1564.25,1108.36C1565.2,1108.36 1565.96,1109.12 1565.96,1110.06C1565.96,1111 1565.2,1111.77 1564.25,1111.77ZM1427.72,1597.85L2019.38,1597.85C2037.78,1597.85 2052.72,1582.91 2052.72,1564.51C2052.72,1546.12 2037.78,1531.18 2019.38,1531.18L1427.72,1531.18C1409.32,1531.18 1394.39,1546.12 1394.39,1564.51C1394.39,1582.91 1409.32,1597.85 1427.72,1597.85ZM1427.72,1467.85L2136.38,1467.85C2154.78,1467.85 2169.72,1452.91 2169.72,1434.51C2169.72,1416.12 2154.78,1401.18 2136.38,1401.18L1427.72,1401.18C1409.32,1401.18 1394.39,1416.12 1394.39,1434.51C1394.39,1452.91 1409.32,1467.85 1427.72,1467.85Z" style="fill:white;"/>
                    </g>
                </g>
            </g>
        </g>
    </g>
</svg>
