<?xml version="1.0" encoding="UTF-8" standalone="no"?>
<!DOCTYPE svg PUBLIC "-//W3C//DTD SVG 1.1//EN" "http://www.w3.org/Graphics/SVG/1.1/DTD/svg11.dtd">
<svg width="100%" height="100%" viewBox="0 0 1314 1448" version="1.1" xmlns="http://www.w3.org/2000/svg" xmlns:xlink="http://www.w3.org/1999/xlink" xml:space="preserve" xmlns:serif="http://www.serif.com/" style="fill-rule:evenodd;clip-rule:evenodd;stroke-linecap:round;stroke-miterlimit:1.5;">
    <g transform="matrix(1,0,0,1,-192,-90)">
        <g transform="matrix(1,0,0,1,-1129.62,-720.472)">
            <g id="Calque1">
                <g>
                    <g>
                        <g transform="matrix(1,0,0,1,233.394,236.22)">
                            <path d="M2383,1009.14L2383,1636.53C2383,1802.37 2248.36,1937.01 2082.53,1937.01L1481.58,1937.01C1315.74,1937.01 1181.1,1802.37 1181.1,1636.53L1181.1,1009.14C1181.1,843.299 1315.74,708.661 1481.58,708.661L2082.53,708.661C2248.36,708.661 2383,843.299 2383,1009.14ZM2299.67,1009.14C2299.67,889.292 2202.37,791.995 2082.53,791.995L1481.58,791.995C1361.73,791.995 1264.44,889.292 1264.44,1009.14L1264.44,1636.53C1264.44,1756.38 1361.73,1853.67 1481.58,1853.67L2082.53,1853.67C2202.37,1853.67 2299.67,1756.38 2299.67,1636.53L2299.67,1009.14Z"/>
                        </g>
                        <g transform="matrix(1.47868,0,0,1.61277,-609.548,-476.224)">
                            <path d="M1847.24,1191.14C1847.24,1220.8 1813.64,1244.88 1772.24,1244.88C1730.85,1244.88 1697.24,1220.8 1697.24,1191.14" style="fill:none;stroke:black;stroke-width:43.09px;"/>
                        </g>
                        <g transform="matrix(1.09084,0,0,1.09084,49.8374,122.852)">
                            <circle cx="1996.56" cy="1121.55" r="59.551"/>
                        </g>
                        <g transform="matrix(1.09084,0,0,1.09084,-380.273,122.852)">
                            <circle cx="1996.56" cy="1121.55" r="59.551"/>
                        </g>
                        <g transform="matrix(1,0,0,1,243.791,277.734)">
                            <path d="M1417.32,1393L2125.98,1393" style="fill:none;stroke:black;stroke-width:66.67px;"/>
                        </g>
                        <g transform="matrix(0.8349,0,0,0.8349,477.791,637.719)">
                            <path d="M1417.32,1393L2125.98,1393" style="fill:none;stroke:black;stroke-width:79.85px;"/>
                        </g>
                    </g>
                </g>
            </g>
        </g>
        <g id="Calque11" serif:id="Calque1">
        </g>
        <g id="Calque12" serif:id="Calque1">
        </g>
    </g>
</svg>
